<svg width="29" height="28" viewBox="0 0 29 28" fill="none" xmlns="http://www.w3.org/2000/svg">
<path id="Vector" fill-rule="evenodd" clip-rule="evenodd" d="M28.5 14.0191C28.5 6.26465 22.229 0 14.4714 0C6.73284 0 0.480983 6.28375 0.500043 14.0573C0.519104 21.7353 6.67565 27.9617 14.3761 27.9999C22.21 28.0381 28.5 21.7735 28.5 14.0191ZM14.4714 26.0136C7.87647 25.9945 2.5014 20.6275 2.5014 14C2.5014 7.37242 7.87647 2.00545 14.5286 2.00545C21.1235 2.00545 26.5177 7.37242 26.5177 13.9809C26.5177 20.6466 21.1426 26.0136 14.4714 26.0136ZM13.1371 15.0122H13.4993C13.4993 15.165 13.4993 15.2796 13.4611 15.3942C13.4611 15.8979 13.459 16.3994 13.4569 16.9002C13.4527 17.8998 13.4484 18.8965 13.4611 19.9017C13.4611 20.1118 13.5183 20.3601 13.6327 20.5511C13.8424 20.9331 14.3189 21.0859 14.7191 20.9713C15.1766 20.8567 15.4625 20.4747 15.4625 19.9781V15.356V15.0122H15.8437H20.342C21.0091 15.0122 21.4666 14.6111 21.4666 14.019C21.4666 13.4269 21.0091 13.0259 20.342 13.0259H15.8056H15.4625V12.6439V8.17458C15.4625 8.04088 15.4625 7.90719 15.4434 7.79259C15.3291 7.2769 14.8526 6.95221 14.357 7.00951C13.8614 7.06681 13.4802 7.487 13.4802 8.02178V12.6439V13.0068H13.1181H8.65789C8.52447 13.0068 8.39104 13.0068 8.27668 13.0259C7.78111 13.1405 7.43802 13.6179 7.4952 14.1145C7.55238 14.6302 7.97171 15.0122 8.50541 15.0122H13.1371Z" fill="#5663B1"/>
</svg>
