<svg width="28" height="28" viewBox="0 0 28 28" fill="none" xmlns="http://www.w3.org/2000/svg">
<g id="ELIMINAR">
<path id="Vector" fill-rule="evenodd" clip-rule="evenodd" d="M12.8847 3.21051e-07H15.1153C15.8411 -9.69254e-06 16.4372 -1.81186e-05 16.9222 0.038644C17.4251 0.0787276 17.8831 0.164478 18.312 0.377691C18.9804 0.709928 19.5237 1.24003 19.8643 1.89214C20.0828 2.3106 20.1707 2.75744 20.2117 3.24803C20.2514 3.72124 20.2513 4.30286 20.2513 5.01097V5.26733H26.1475C26.6183 5.26733 27 5.63969 27 6.09901C27 6.55834 26.6183 6.9307 26.1475 6.9307H24.3005V20.8838C24.3005 21.9593 24.3005 22.8172 24.2425 23.5099C24.1831 24.2201 24.0584 24.8296 23.7663 25.3889C23.2964 26.2888 22.5465 27.0203 21.6242 27.4788C21.0509 27.7638 20.4262 27.8854 19.6983 27.9434C18.9883 28 18.1088 28 17.0063 28H10.9937C9.89116 28 9.01175 28 8.30169 27.9434C7.57376 27.8854 6.94909 27.7638 6.37579 27.4788C5.45346 27.0203 4.70365 26.2888 4.23371 25.3889C3.94162 24.8296 3.81695 24.2201 3.75748 23.5099C3.69947 22.8172 3.69948 21.9593 3.69948 20.8838V6.9307H1.85246C1.38166 6.9307 1 6.55834 1 6.09901C1 5.63969 1.38166 5.26733 1.85246 5.26733H7.74866V5.01093C7.74865 4.30283 7.74864 3.72123 7.78827 3.24803C7.82935 2.75745 7.91723 2.31062 8.13573 1.89216C8.4763 1.24 9.01977 0.709915 9.68799 0.377709C10.1169 0.164496 10.5749 0.0787276 11.0778 0.038644C11.5628 -1.81186e-05 12.1589 -9.69254e-06 12.8847 3.21051e-07ZM5.4044 6.9307V20.8475C5.4044 21.9675 5.40506 22.7575 5.45673 23.3745C5.50759 23.9818 5.60358 24.348 5.75281 24.6338C6.05929 25.2206 6.54827 25.6977 7.14979 25.9967C7.44268 26.1423 7.81803 26.236 8.44052 26.2856C9.07297 26.336 9.88267 26.3366 11.0306 26.3366H16.9694C18.1173 26.3366 18.927 26.336 19.5595 26.2856C20.182 26.236 20.5573 26.1423 20.8502 25.9967C21.4517 25.6977 21.9407 25.2206 22.2472 24.6338C22.3964 24.348 22.4924 23.9818 22.5433 23.3745C22.5949 22.7575 22.5956 21.9675 22.5956 20.8475V6.9307H5.4044ZM18.5464 5.26733H9.45358V5.04552C9.45358 4.2943 9.45424 3.78091 9.48752 3.38347C9.51999 2.99576 9.5792 2.79216 9.65487 2.64724C9.83191 2.30822 10.1145 2.03257 10.462 1.85977M18.5464 5.26733V5.04552C18.5464 4.2943 18.5458 3.78091 18.5125 3.38347C18.48 2.99574 18.4208 2.79215 18.3451 2.64722C18.1681 2.30815 17.8856 2.03254 17.538 1.85978C17.3895 1.78595 17.1808 1.72817 16.7834 1.69649C16.376 1.66402 15.8498 1.66337 15.0798 1.66337H12.9202C12.1502 1.66337 11.624 1.66402 11.2166 1.69649C10.8193 1.72816 10.6106 1.78595 10.462 1.85977M11.3005 12.5099C11.7713 12.5099 12.153 12.8822 12.153 13.3416V19.9258C12.153 20.3851 11.7713 20.7574 11.3005 20.7574C10.8297 20.7574 10.4481 20.3851 10.4481 19.9258V13.3416C10.4481 12.8822 10.8297 12.5099 11.3005 12.5099ZM16.6995 12.5099C17.1703 12.5099 17.5519 12.8822 17.5519 13.3416V19.9258C17.5519 20.3851 17.1703 20.7574 16.6995 20.7574C16.2287 20.7574 15.847 20.3851 15.847 19.9258V13.3416C15.847 12.8822 16.2287 12.5099 16.6995 12.5099Z" fill="#5663B1"/>
</g>
</svg>
